<svg xmlns="http://www.w3.org/2000/svg" xmlns:xlink="http://www.w3.org/1999/xlink" width="500" zoomAndPan="magnify" viewBox="0 0 375 374.999991" height="500" preserveAspectRatio="xMidYMid meet" version="1.0"><defs><clipPath id="5f1e945a04"><path d="M 0 2.34375 L 375 2.34375 L 375 372.84375 L 0 372.84375 Z M 0 2.34375 " clip-rule="nonzero"/></clipPath></defs><g clip-path="url(#5f1e945a04)"><path fill="#54c7e3" d="M 207.152344 210.53125 L 207.152344 242.476562 C 207.152344 244.285156 205.683594 245.753906 203.875 245.753906 L 171.125 245.753906 C 169.316406 245.753906 167.851562 244.285156 167.851562 242.476562 L 167.851562 210.53125 C 167.851562 208.71875 166.386719 207.253906 164.574219 207.253906 L 132.644531 207.253906 C 130.835938 207.253906 129.371094 205.785156 129.371094 203.976562 L 129.371094 171.210938 C 129.371094 169.402344 130.835938 167.933594 132.644531 167.933594 L 164.574219 167.933594 C 166.386719 167.933594 167.851562 166.464844 167.851562 164.65625 L 167.851562 132.710938 C 167.851562 130.902344 169.316406 129.433594 171.125 129.433594 L 203.875 129.433594 C 205.683594 129.433594 207.152344 130.902344 207.152344 132.710938 L 207.152344 164.65625 C 207.152344 166.464844 208.617188 167.933594 210.425781 167.933594 L 242.355469 167.933594 C 244.164062 167.933594 245.628906 169.402344 245.628906 171.210938 L 245.628906 203.976562 C 245.628906 205.785156 244.164062 207.253906 242.355469 207.253906 L 210.425781 207.253906 C 208.617188 207.253906 207.152344 208.71875 207.152344 210.53125 Z M 343.257812 277.648438 C 343.257812 284.132812 337.988281 289.40625 331.507812 289.40625 C 325.03125 289.40625 319.765625 284.132812 319.765625 277.648438 C 319.765625 271.167969 325.03125 265.894531 331.507812 265.894531 C 337.988281 265.894531 343.257812 271.167969 343.257812 277.648438 Z M 279.933594 317.632812 C 286.414062 317.632812 291.683594 322.90625 291.683594 329.386719 C 291.683594 335.867188 286.414062 341.140625 279.933594 341.140625 C 273.457031 341.140625 268.1875 335.867188 268.1875 329.386719 C 268.1875 322.90625 273.457031 317.632812 279.933594 317.632812 Z M 95.253906 341.140625 C 88.773438 341.140625 83.503906 335.867188 83.503906 329.386719 C 83.503906 322.90625 88.773438 317.632812 95.253906 317.632812 C 101.730469 317.632812 107 322.90625 107 329.386719 C 107 335.867188 101.730469 341.140625 95.253906 341.140625 Z M 43.492188 289.40625 C 37.011719 289.40625 31.742188 284.132812 31.742188 277.648438 C 31.742188 271.167969 37.011719 265.894531 43.492188 265.894531 C 49.96875 265.894531 55.238281 271.167969 55.238281 277.648438 C 55.238281 284.132812 49.96875 289.40625 43.492188 289.40625 Z M 31.742188 92.875 C 31.742188 86.394531 37.011719 81.121094 43.492188 81.121094 C 49.96875 81.121094 55.238281 86.394531 55.238281 92.875 C 55.238281 99.355469 49.96875 104.628906 43.492188 104.628906 C 37.011719 104.628906 31.742188 99.355469 31.742188 92.875 Z M 95.253906 57.554688 C 88.773438 57.554688 83.503906 52.28125 83.503906 45.800781 C 83.503906 39.316406 88.773438 34.046875 95.253906 34.046875 C 101.730469 34.046875 107 39.316406 107 45.800781 C 107 52.28125 101.730469 57.554688 95.253906 57.554688 Z M 279.933594 34.046875 C 286.414062 34.046875 291.683594 39.316406 291.683594 45.800781 C 291.683594 52.28125 286.414062 57.554688 279.933594 57.554688 C 273.457031 57.554688 268.1875 52.28125 268.1875 45.800781 C 268.1875 39.316406 273.457031 34.046875 279.933594 34.046875 Z M 331.507812 81.121094 C 337.988281 81.121094 343.257812 86.394531 343.257812 92.875 C 343.257812 99.355469 337.988281 104.628906 331.507812 104.628906 C 325.03125 104.628906 319.765625 99.355469 319.765625 92.875 C 319.765625 86.394531 325.03125 81.121094 331.507812 81.121094 Z M 355.328125 165.640625 C 346.738281 165.640625 339.441406 171.171875 336.789062 178.867188 L 283.792969 178.867188 L 283.792969 146.8125 L 303.183594 146.8125 C 320.0625 146.8125 333.941406 133.714844 335.207031 117.144531 C 346.988281 115.355469 356.042969 105.152344 356.042969 92.875 C 356.042969 79.339844 345.039062 68.328125 331.507812 68.328125 C 317.980469 68.328125 306.972656 79.339844 306.972656 92.875 C 306.972656 103.222656 313.410156 112.089844 322.488281 115.695312 C 321.957031 125.886719 313.5 134.015625 303.183594 134.015625 L 283.792969 134.015625 L 283.792969 104.683594 C 283.792969 96.027344 276.78125 89.011719 268.132812 89.011719 L 238.8125 89.011719 L 238.8125 74.140625 C 238.8125 63.816406 246.9375 55.359375 257.125 54.828125 C 260.730469 63.90625 269.589844 70.347656 279.933594 70.347656 C 293.464844 70.347656 304.472656 59.335938 304.472656 45.800781 C 304.472656 32.261719 293.464844 21.253906 279.933594 21.253906 C 267.660156 21.253906 257.464844 30.3125 255.675781 42.101562 C 239.113281 43.363281 226.023438 57.253906 226.023438 74.140625 L 226.023438 89.011719 L 193.988281 89.011719 L 193.988281 40.515625 C 201.679688 37.863281 207.207031 30.5625 207.207031 21.964844 C 207.207031 11.128906 198.425781 2.34375 187.59375 2.34375 C 176.761719 2.34375 167.980469 11.128906 167.980469 21.964844 C 167.980469 30.5625 173.507812 37.863281 181.199219 40.515625 L 181.199219 89.011719 L 149.160156 89.011719 L 149.160156 74.140625 C 149.160156 57.253906 136.070312 43.363281 119.511719 42.101562 C 117.722656 30.3125 107.527344 21.253906 95.253906 21.253906 C 81.722656 21.253906 70.714844 32.261719 70.714844 45.800781 C 70.714844 59.335938 81.722656 70.347656 95.253906 70.347656 C 105.597656 70.347656 114.457031 63.90625 118.0625 54.828125 C 128.25 55.359375 136.375 63.816406 136.375 74.140625 L 136.375 89.011719 L 107.054688 89.011719 C 98.402344 89.011719 91.390625 96.027344 91.390625 104.683594 L 91.390625 134.015625 L 71.816406 134.015625 C 61.5 134.015625 53.046875 125.886719 52.515625 115.695312 C 61.589844 112.089844 68.027344 103.222656 68.027344 92.875 C 68.027344 79.339844 57.019531 68.328125 43.492188 68.328125 C 29.960938 68.328125 18.957031 79.339844 18.957031 92.875 C 18.957031 105.152344 28.011719 115.355469 39.792969 117.144531 C 41.058594 133.714844 54.9375 146.8125 71.816406 146.8125 L 91.390625 146.8125 L 91.390625 178.867188 L 38.210938 178.867188 C 35.558594 171.171875 28.261719 165.640625 19.671875 165.640625 C 8.839844 165.640625 0.0585938 174.425781 0.0585938 185.261719 C 0.0585938 196.101562 8.839844 204.886719 19.671875 204.886719 C 28.261719 204.886719 35.558594 199.355469 38.210938 191.660156 L 91.390625 191.660156 L 91.390625 223.714844 L 71.816406 223.714844 C 54.9375 223.714844 41.058594 236.808594 39.792969 253.382812 C 28.011719 255.171875 18.957031 265.371094 18.957031 277.648438 C 18.957031 291.1875 29.960938 302.199219 43.492188 302.199219 C 57.019531 302.199219 68.027344 291.1875 68.027344 277.648438 C 68.027344 267.300781 61.589844 258.433594 52.515625 254.828125 C 53.046875 244.636719 61.5 236.507812 71.816406 236.507812 L 91.390625 236.507812 L 91.390625 265.84375 C 91.390625 274.496094 98.402344 281.511719 107.054688 281.511719 L 136.375 281.511719 L 136.375 301.046875 C 136.375 311.367188 128.25 319.828125 118.0625 320.359375 C 114.457031 311.277344 105.597656 304.839844 95.253906 304.839844 C 81.722656 304.839844 70.714844 315.851562 70.714844 329.386719 C 70.714844 342.921875 81.722656 353.933594 95.253906 353.933594 C 107.527344 353.933594 117.722656 344.871094 119.511719 333.085938 C 136.070312 331.820312 149.160156 317.933594 149.160156 301.046875 L 149.160156 281.511719 L 181.199219 281.511719 L 181.199219 334.667969 C 173.507812 337.324219 167.980469 344.625 167.980469 353.21875 C 167.980469 364.058594 176.761719 372.84375 187.59375 372.84375 C 198.425781 372.84375 207.207031 364.058594 207.207031 353.21875 C 207.207031 344.625 201.679688 337.324219 193.988281 334.667969 L 193.988281 281.511719 L 226.023438 281.511719 L 226.023438 301.046875 C 226.023438 317.933594 239.113281 331.820312 255.675781 333.085938 C 257.464844 344.871094 267.660156 353.933594 279.933594 353.933594 C 293.464844 353.933594 304.472656 342.921875 304.472656 329.386719 C 304.472656 315.851562 293.464844 304.839844 279.933594 304.839844 C 269.589844 304.839844 260.730469 311.277344 257.125 320.359375 C 246.9375 319.828125 238.8125 311.367188 238.8125 301.046875 L 238.8125 281.511719 L 268.132812 281.511719 C 276.78125 281.511719 283.792969 274.496094 283.792969 265.84375 L 283.792969 236.507812 L 303.183594 236.507812 C 313.5 236.507812 321.957031 244.636719 322.488281 254.828125 C 313.410156 258.433594 306.972656 267.300781 306.972656 277.648438 C 306.972656 291.1875 317.980469 302.199219 331.507812 302.199219 C 345.039062 302.199219 356.042969 291.1875 356.042969 277.648438 C 356.042969 265.371094 346.988281 255.171875 335.207031 253.382812 C 333.941406 236.808594 320.0625 223.714844 303.183594 223.714844 L 283.792969 223.714844 L 283.792969 191.660156 L 336.789062 191.660156 C 339.441406 199.355469 346.738281 204.886719 355.328125 204.886719 C 366.160156 204.886719 374.945312 196.101562 374.945312 185.261719 C 374.945312 174.425781 366.160156 165.640625 355.328125 165.640625 " fill-opacity="1" fill-rule="nonzero"/></g></svg>