<svg xmlns="http://www.w3.org/2000/svg" xmlns:xlink="http://www.w3.org/1999/xlink" width="500" zoomAndPan="magnify" viewBox="0 0 375 374.999991" height="500" preserveAspectRatio="xMidYMid meet" version="1.0"><path fill="#bbf100" d="M 187.5 0 C 184.429688 0 181.363281 0.0742188 178.300781 0.226562 C 175.234375 0.375 172.175781 0.601562 169.121094 0.902344 C 166.066406 1.203125 163.023438 1.578125 159.988281 2.03125 C 156.953125 2.480469 153.929688 3.003906 150.921875 3.601562 C 147.910156 4.203125 144.917969 4.875 141.941406 5.617188 C 138.964844 6.363281 136.007812 7.183594 133.070312 8.074219 C 130.136719 8.964844 127.222656 9.925781 124.332031 10.960938 C 121.445312 11.996094 118.582031 13.097656 115.746094 14.273438 C 112.910156 15.445312 110.105469 16.691406 107.332031 18.003906 C 104.558594 19.3125 101.820312 20.691406 99.113281 22.140625 C 96.40625 23.585938 93.738281 25.097656 91.105469 26.675781 C 88.472656 28.253906 85.882812 29.894531 83.332031 31.597656 C 80.777344 33.304688 78.269531 35.070312 75.804688 36.898438 C 73.339844 38.726562 70.921875 40.613281 68.550781 42.558594 C 66.179688 44.507812 63.855469 46.511719 61.582031 48.570312 C 59.308594 50.632812 57.085938 52.746094 54.917969 54.917969 C 52.746094 57.085938 50.632812 59.308594 48.570312 61.582031 C 46.511719 63.855469 44.507812 66.179688 42.558594 68.550781 C 40.613281 70.921875 38.726562 73.339844 36.898438 75.804688 C 35.070312 78.269531 33.304688 80.777344 31.597656 83.332031 C 29.894531 85.882812 28.253906 88.472656 26.675781 91.105469 C 25.097656 93.738281 23.585938 96.40625 22.140625 99.113281 C 20.691406 101.820312 19.3125 104.558594 18.003906 107.332031 C 16.691406 110.105469 15.445312 112.910156 14.273438 115.746094 C 13.097656 118.582031 11.996094 121.445312 10.960938 124.332031 C 9.925781 127.222656 8.964844 130.136719 8.074219 133.070312 C 7.183594 136.007812 6.363281 138.964844 5.621094 141.941406 C 4.875 144.917969 4.203125 147.910156 3.601562 150.921875 C 3.003906 153.929688 2.480469 156.953125 2.03125 159.988281 C 1.578125 163.023438 1.203125 166.066406 0.902344 169.121094 C 0.601562 172.175781 0.375 175.234375 0.226562 178.300781 C 0.0742188 181.363281 0 184.429688 0 187.5 C 0 190.570312 0.0742188 193.636719 0.226562 196.699219 C 0.375 199.765625 0.601562 202.824219 0.902344 205.878906 C 1.203125 208.933594 1.578125 211.976562 2.03125 215.011719 C 2.480469 218.046875 3.003906 221.070312 3.601562 224.078125 C 4.203125 227.089844 4.875 230.082031 5.621094 233.058594 C 6.363281 236.035156 7.183594 238.992188 8.074219 241.929688 C 8.964844 244.863281 9.925781 247.777344 10.960938 250.667969 C 11.996094 253.554688 13.097656 256.417969 14.273438 259.253906 C 15.445312 262.089844 16.691406 264.894531 18.003906 267.667969 C 19.3125 270.441406 20.691406 273.179688 22.140625 275.886719 C 23.585938 278.59375 25.097656 281.261719 26.675781 283.894531 C 28.253906 286.527344 29.894531 289.117188 31.597656 291.667969 C 33.304688 294.222656 35.070312 296.730469 36.898438 299.195312 C 38.726562 301.660156 40.613281 304.078125 42.558594 306.449219 C 44.507812 308.820312 46.511719 311.144531 48.570312 313.417969 C 50.632812 315.691406 52.746094 317.914062 54.917969 320.082031 C 57.085938 322.253906 59.308594 324.367188 61.582031 326.429688 C 63.855469 328.488281 66.179688 330.492188 68.550781 332.441406 C 70.921875 334.386719 73.339844 336.273438 75.804688 338.101562 C 78.269531 339.929688 80.777344 341.695312 83.332031 343.402344 C 85.882812 345.105469 88.472656 346.746094 91.105469 348.324219 C 93.738281 349.902344 96.40625 351.414062 99.113281 352.859375 C 101.820312 354.308594 104.558594 355.6875 107.332031 356.996094 C 110.105469 358.308594 112.910156 359.554688 115.746094 360.726562 C 118.582031 361.902344 121.445312 363.003906 124.332031 364.039062 C 127.222656 365.074219 130.136719 366.035156 133.070312 366.925781 C 136.007812 367.816406 138.964844 368.636719 141.941406 369.378906 C 144.917969 370.125 147.910156 370.796875 150.921875 371.398438 C 153.929688 371.996094 156.953125 372.519531 159.988281 372.96875 C 163.023438 373.421875 166.066406 373.796875 169.121094 374.097656 C 172.175781 374.398438 175.234375 374.625 178.300781 374.773438 C 181.363281 374.925781 184.429688 375 187.5 375 C 190.570312 375 193.636719 374.925781 196.699219 374.773438 C 199.765625 374.625 202.824219 374.398438 205.878906 374.097656 C 208.933594 373.796875 211.976562 373.421875 215.011719 372.96875 C 218.046875 372.519531 221.070312 371.996094 224.078125 371.398438 C 227.089844 370.796875 230.082031 370.125 233.058594 369.378906 C 236.035156 368.636719 238.992188 367.816406 241.929688 366.925781 C 244.863281 366.035156 247.777344 365.074219 250.667969 364.039062 C 253.554688 363.003906 256.417969 361.902344 259.253906 360.726562 C 262.089844 359.554688 264.894531 358.308594 267.667969 356.996094 C 270.441406 355.6875 273.179688 354.308594 275.886719 352.859375 C 278.59375 351.414062 281.261719 349.902344 283.894531 348.324219 C 286.527344 346.746094 289.117188 345.105469 291.667969 343.402344 C 294.222656 341.695312 296.730469 339.929688 299.195312 338.101562 C 301.660156 336.273438 304.078125 334.386719 306.449219 332.4375 C 308.820312 330.492188 311.144531 328.488281 313.417969 326.429688 C 315.691406 324.367188 317.914062 322.253906 320.082031 320.082031 C 322.253906 317.914062 324.367188 315.691406 326.429688 313.417969 C 328.488281 311.144531 330.492188 308.820312 332.441406 306.449219 C 334.386719 304.078125 336.273438 301.660156 338.101562 299.195312 C 339.929688 296.730469 341.695312 294.222656 343.402344 291.667969 C 345.105469 289.117188 346.746094 286.527344 348.324219 283.894531 C 349.902344 281.261719 351.414062 278.59375 352.859375 275.886719 C 354.308594 273.179688 355.6875 270.441406 356.996094 267.667969 C 358.308594 264.894531 359.554688 262.089844 360.726562 259.253906 C 361.902344 256.417969 363.003906 253.554688 364.039062 250.667969 C 365.074219 247.777344 366.035156 244.863281 366.925781 241.929688 C 367.816406 238.992188 368.636719 236.035156 369.378906 233.058594 C 370.125 230.082031 370.796875 227.089844 371.398438 224.078125 C 371.996094 221.070312 372.519531 218.046875 372.96875 215.011719 C 373.421875 211.976562 373.796875 208.933594 374.097656 205.878906 C 374.398438 202.824219 374.625 199.765625 374.773438 196.699219 C 374.925781 193.636719 375 190.570312 375 187.5 C 375 184.429688 374.925781 181.363281 374.773438 178.300781 C 374.621094 175.234375 374.394531 172.175781 374.09375 169.121094 C 373.792969 166.070312 373.417969 163.023438 372.96875 159.988281 C 372.515625 156.953125 371.992188 153.933594 371.394531 150.921875 C 370.792969 147.914062 370.121094 144.917969 369.375 141.941406 C 368.628906 138.96875 367.8125 136.011719 366.921875 133.074219 C 366.03125 130.136719 365.066406 127.226562 364.035156 124.335938 C 363 121.445312 361.894531 118.585938 360.722656 115.75 C 359.546875 112.914062 358.304688 110.113281 356.992188 107.335938 C 355.679688 104.5625 354.300781 101.824219 352.851562 99.117188 C 351.40625 96.410156 349.894531 93.742188 348.316406 91.109375 C 346.738281 88.480469 345.097656 85.886719 343.394531 83.335938 C 341.6875 80.785156 339.921875 78.277344 338.09375 75.8125 C 336.265625 73.347656 334.378906 70.929688 332.433594 68.558594 C 330.484375 66.1875 328.480469 63.863281 326.421875 61.589844 C 324.359375 59.316406 322.246094 57.09375 320.074219 54.925781 C 317.90625 52.753906 315.683594 50.640625 313.410156 48.578125 C 311.136719 46.519531 308.8125 44.515625 306.441406 42.566406 C 304.070312 40.621094 301.652344 38.734375 299.1875 36.90625 C 296.722656 35.078125 294.214844 33.3125 291.664062 31.605469 C 289.113281 29.902344 286.519531 28.261719 283.890625 26.683594 C 281.257812 25.105469 278.589844 23.59375 275.882812 22.148438 C 273.175781 20.699219 270.4375 19.320312 267.664062 18.007812 C 264.886719 16.695312 262.085938 15.453125 259.25 14.277344 C 256.414062 13.105469 253.550781 12 250.664062 10.964844 C 247.773438 9.933594 244.863281 8.96875 241.925781 8.078125 C 238.988281 7.1875 236.03125 6.371094 233.058594 5.625 C 230.082031 4.878906 227.085938 4.207031 224.078125 3.605469 C 221.066406 3.007812 218.046875 2.484375 215.011719 2.03125 C 211.976562 1.582031 208.929688 1.207031 205.878906 0.90625 C 202.824219 0.605469 199.765625 0.378906 196.699219 0.226562 C 193.636719 0.0742188 190.570312 0 187.5 0 Z M 187.5 70.3125 C 188.609375 70.3125 189.71875 70.34375 190.824219 70.40625 C 191.933594 70.46875 193.035156 70.566406 194.140625 70.695312 C 195.242188 70.820312 196.339844 70.980469 197.429688 71.171875 C 198.523438 71.363281 199.609375 71.585938 200.691406 71.839844 C 201.769531 72.09375 202.839844 72.378906 203.902344 72.691406 C 204.96875 73.007812 206.019531 73.355469 207.0625 73.730469 C 208.105469 74.109375 209.140625 74.515625 210.160156 74.953125 C 211.179688 75.386719 212.183594 75.855469 213.175781 76.347656 C 214.171875 76.84375 215.148438 77.367188 216.109375 77.917969 C 217.074219 78.46875 218.019531 79.046875 218.949219 79.652344 C 219.878906 80.261719 220.789062 80.890625 221.679688 81.550781 C 222.574219 82.210938 223.445312 82.894531 224.296875 83.601562 C 225.152344 84.3125 225.984375 85.046875 226.792969 85.800781 C 227.605469 86.558594 228.390625 87.339844 229.15625 88.144531 C 229.921875 88.945312 230.664062 89.769531 231.382812 90.617188 C 232.097656 91.460938 232.792969 92.328125 233.460938 93.214844 C 234.125 94.101562 234.769531 95.003906 235.382812 95.925781 C 236 96.851562 236.585938 97.789062 237.148438 98.746094 C 237.707031 99.703125 238.242188 100.675781 238.746094 101.664062 C 239.25 102.652344 239.726562 103.652344 240.171875 104.667969 C 240.617188 105.683594 241.035156 106.710938 241.421875 107.75 C 241.808594 108.792969 242.167969 109.839844 242.492188 110.902344 C 242.820312 111.960938 243.113281 113.03125 243.378906 114.105469 C 243.644531 115.183594 243.875 116.269531 244.078125 117.359375 C 244.28125 118.449219 244.449219 119.546875 244.589844 120.644531 C 244.726562 121.746094 244.832031 122.851562 244.910156 123.957031 C 244.984375 125.0625 245.027344 126.171875 245.035156 127.28125 C 245.046875 128.390625 245.023438 129.5 244.972656 130.605469 C 244.917969 131.714844 244.832031 132.820312 244.714844 133.921875 C 244.597656 135.027344 244.445312 136.125 244.265625 137.21875 C 244.085938 138.3125 243.871094 139.402344 243.628906 140.484375 C 243.382812 141.566406 243.109375 142.640625 242.800781 143.707031 C 242.496094 144.773438 242.15625 145.828125 241.789062 146.875 C 241.421875 147.921875 241.027344 148.957031 240.597656 149.980469 C 240.171875 151.003906 239.714844 152.015625 239.226562 153.011719 C 238.742188 154.007812 238.226562 154.992188 237.6875 155.957031 C 237.144531 156.925781 236.574219 157.875 235.976562 158.8125 C 235.378906 159.746094 234.753906 160.660156 234.101562 161.558594 C 233.453125 162.457031 232.777344 163.335938 232.074219 164.195312 C 231.371094 165.054688 230.648438 165.894531 229.894531 166.710938 C 229.144531 167.527344 228.375 168.324219 227.578125 169.09375 C 226.78125 169.867188 225.964844 170.617188 225.125 171.34375 C 224.285156 172.066406 223.425781 172.765625 222.546875 173.441406 C 221.664062 174.117188 220.765625 174.765625 219.847656 175.390625 C 218.929688 176.015625 217.996094 176.609375 217.042969 177.179688 C 216.09375 177.75 215.125 178.289062 214.140625 178.804688 C 213.160156 179.316406 212.160156 179.800781 211.148438 180.257812 C 210.136719 180.710938 209.113281 181.140625 208.078125 181.535156 C 207.042969 181.929688 205.996094 182.296875 204.9375 182.632812 C 203.882812 182.96875 202.816406 183.273438 201.742188 183.546875 C 200.664062 183.824219 199.582031 184.066406 198.496094 184.277344 C 197.40625 184.488281 196.3125 184.667969 195.210938 184.816406 C 194.113281 184.964844 193.011719 185.082031 191.90625 185.164062 C 190.796875 185.25 189.691406 185.300781 188.582031 185.324219 C 187.472656 185.34375 186.363281 185.332031 185.257812 185.285156 C 184.148438 185.242188 183.042969 185.167969 181.9375 185.058594 C 180.832031 184.953125 179.734375 184.8125 178.636719 184.640625 C 177.542969 184.46875 176.453125 184.265625 175.367188 184.03125 C 174.285156 183.796875 173.207031 183.53125 172.136719 183.234375 C 171.070312 182.9375 170.011719 182.609375 168.960938 182.25 C 167.910156 181.894531 166.871094 181.503906 165.84375 181.085938 C 164.816406 180.667969 163.800781 180.222656 162.800781 179.746094 C 161.800781 179.269531 160.8125 178.761719 159.839844 178.226562 C 158.867188 177.695312 157.914062 177.132812 156.972656 176.542969 C 108.691406 145.957031 129.609375 70.898438 187.5 70.3125 Z M 254.941406 304.6875 L 120.058594 304.6875 C 118.667969 304.683594 117.277344 304.613281 115.894531 304.476562 C 114.507812 304.335938 113.132812 304.128906 111.769531 303.855469 C 110.40625 303.582031 109.058594 303.242188 107.726562 302.835938 C 106.394531 302.429688 105.085938 301.960938 103.800781 301.425781 C 102.515625 300.890625 101.261719 300.296875 100.035156 299.640625 C 98.804688 298.980469 97.613281 298.265625 96.457031 297.492188 C 95.300781 296.71875 94.1875 295.886719 93.109375 295.003906 C 92.035156 294.121094 91.007812 293.1875 90.023438 292.199219 C 89.039062 291.214844 88.105469 290.183594 87.222656 289.109375 C 86.34375 288.03125 85.515625 286.914062 84.742188 285.757812 C 83.96875 284.601562 83.253906 283.410156 82.597656 282.179688 C 81.941406 280.953125 81.347656 279.695312 80.816406 278.410156 C 80.285156 277.125 79.816406 275.816406 79.410156 274.484375 C 79.007812 273.152344 78.667969 271.804688 78.398438 270.4375 C 78.125 269.074219 77.921875 267.699219 77.785156 266.3125 C 77.648438 264.929688 77.578125 263.539062 77.578125 262.148438 C 77.578125 226.113281 104.121094 195 142.207031 180.996094 C 143.773438 182.320312 145.398438 183.578125 147.074219 184.761719 C 148.75 185.945312 150.476562 187.050781 152.253906 188.082031 C 154.027344 189.117188 155.84375 190.066406 157.703125 190.941406 C 159.5625 191.8125 161.453125 192.601562 163.382812 193.308594 C 165.308594 194.015625 167.265625 194.632812 169.246094 195.167969 C 171.230469 195.703125 173.230469 196.148438 175.253906 196.507812 C 177.273438 196.867188 179.308594 197.136719 181.351562 197.316406 C 183.398438 197.496094 185.445312 197.585938 187.5 197.585938 C 189.554688 197.585938 191.601562 197.496094 193.648438 197.316406 C 195.691406 197.136719 197.726562 196.867188 199.746094 196.507812 C 201.769531 196.148438 203.769531 195.703125 205.753906 195.167969 C 207.734375 194.632812 209.691406 194.015625 211.617188 193.308594 C 213.546875 192.601562 215.4375 191.8125 217.296875 190.941406 C 219.15625 190.066406 220.972656 189.117188 222.746094 188.082031 C 224.523438 187.050781 226.25 185.945312 227.925781 184.761719 C 229.601562 183.578125 231.226562 182.320312 232.792969 180.996094 C 270.878906 195 297.421875 226.113281 297.421875 262.148438 C 297.421875 263.539062 297.351562 264.929688 297.214844 266.3125 C 297.078125 267.699219 296.875 269.074219 296.601562 270.4375 C 296.332031 271.804688 295.992188 273.152344 295.589844 274.484375 C 295.183594 275.816406 294.714844 277.125 294.183594 278.410156 C 293.652344 279.695312 293.058594 280.953125 292.402344 282.179688 C 291.746094 283.410156 291.03125 284.601562 290.257812 285.757812 C 289.484375 286.914062 288.65625 288.03125 287.777344 289.109375 C 286.894531 290.183594 285.960938 291.214844 284.976562 292.199219 C 283.992188 293.1875 282.964844 294.121094 281.890625 295.003906 C 280.8125 295.886719 279.699219 296.71875 278.542969 297.492188 C 277.386719 298.265625 276.195312 298.980469 274.964844 299.640625 C 273.738281 300.296875 272.484375 300.890625 271.199219 301.425781 C 269.914062 301.960938 268.605469 302.429688 267.273438 302.835938 C 265.941406 303.242188 264.59375 303.582031 263.230469 303.855469 C 261.867188 304.128906 260.492188 304.335938 259.105469 304.476562 C 257.722656 304.613281 256.332031 304.683594 254.941406 304.6875 Z M 254.941406 304.6875 " fill-opacity="1" fill-rule="nonzero"/></svg>